<svg id="Komponente_4_2" data-name="Komponente 4 – 2" xmlns="http://www.w3.org/2000/svg" width="817.784" height="943.953" viewBox="0 0 817.784 943.953">
  <rect id="Rechteck_20" data-name="Rechteck 20" width="428" height="165" rx="10" transform="translate(230.236)" fill="#f2b90f"/>
  <path id="Pfad_17" data-name="Pfad 17" d="M290.843,47.949c90.86-218.5,290.843,135.835,290.843,303.4s-130.215,303.4-290.843,303.4S0,518.9,0,351.344,199.983,266.452,290.843,47.949Z" transform="translate(168.774 61.083)" fill="#2e56a6"/>
  <path id="Pfad_16" data-name="Pfad 16" d="M97.146,24.31c40.1,87.946,128.108,81.329,69.89,0,1.445-19.539-2.9-93.435,135.133-37.854C425.192,82.794,273.578,171.615,273.578,181.9c0,54.5-111.115,28.009-165.227,28.009s-47.53-107.162-97.978-98.68S-26.572-38.748,97.146,24.31Z" transform="translate(141.568 73.762)" fill="#f25c5c"/>
  <path id="Pfad_18" data-name="Pfad 18" d="M175.215,5.592C214.883,48.25,282.421,89.763,321.183,160.372,234.856,363.142,483.568,319.153,390.68,360.2c0,90.678,44.222,212.434-96.511,198.267-36.208,16.99-80.44-7.4-118.954-7.4C78.446,551.066,0,428.958,0,278.329S117.3-56.681,175.215,5.592Z" transform="translate(405.979 191.268)" fill="#75b6de"/>
  <path id="Pfad_20" data-name="Pfad 20" d="M230.236,34.934C189.247-193.357,460.471,95.945,460.471,171.206S357.391,307.478,230.236,307.478,0,246.467,0,171.206,271.224,263.225,230.236,34.934Z" transform="translate(0 236.696)" fill="#45bf9d"/>
  <path id="Pfad_15" data-name="Pfad 15" d="M131.271,10.95a12.672,12.672,0,0,1,19.344,0s-29.393,59.266,0,94.584,90.6,30.105,117.574,46.689c14,8.607,40.145-78.052,19.3-109.549S207.179-18.971,184.814,26.233s72,197.256,13.217,197.256S23.369,171.87,23.369,171.87c-10.452,0-16.239-11.756-9.672-19.647L35.38,56.007Z" transform="translate(196.611 197.182)" fill="#f2911b"/>
  <path id="Pfad_19" data-name="Pfad 19" d="M256.327,23.312a13.682,13.682,0,0,1,25.037,0S235.869,336.12,319.14,242.98,517.762,565.018,517.762,565.018a13.556,13.556,0,0,1-12.519,18.934H32.448A13.556,13.556,0,0,1,19.93,565.018S-169.732,192.31,175.715,208.036,256.327,23.312,256.327,23.312Z" transform="translate(200.795 360)" fill="#f2911b"/>
</svg>
