<svg id="Ebene_1" data-name="Ebene 1" xmlns="http://www.w3.org/2000/svg" viewBox="0 0 512 512"><defs><style>.cls-1{fill:#f49739;}</style></defs><path class="cls-1" d="M474.41,122.44l24.84-24.83a15,15,0,0,0-9.35-25.56l-46.07-3.88L440,22.1a15,15,0,0,0-25.56-9.34L389.56,37.59A256,256,0,0,0,75,437,256,256,0,0,0,474.41,122.44ZM415,83.31A15,15,0,0,0,428.69,97l26.5,2.23-35.87,35.88-39.13-3.3-3.3-39.13,35.88-35.87ZM307,256a51,51,0,1,1-27.15-45.06l-34.46,34.45a15,15,0,0,0,21.22,21.22l34.45-34.46A50.62,50.62,0,0,1,307,256Zm-5.35-66.87a81.09,81.09,0,1,0,21.22,21.22l42.83-42.83A140.36,140.36,0,0,1,397,256c0,77.75-63.25,141-141,141S115,333.75,115,256s63.25-141,141-141a140.36,140.36,0,0,1,88.48,31.3ZM415.8,415.8A226,226,0,1,1,96.2,96.2,226.08,226.08,0,0,1,367.67,59.48L350.75,76.39a15,15,0,0,0-4.39,10.23c0,.54,0,1.09.05,1.64l2,23.94A169.91,169.91,0,0,0,256,85C161.71,85,85,161.71,85,256s76.71,171,171,171,171-76.71,171-171a169.91,169.91,0,0,0-27.2-92.43l23.94,2c.42,0,.84,0,1.26,0h.21l.6,0c.32,0,.65,0,1-.08l.6-.09c.32-.05.63-.11.94-.18l.59-.14.91-.28.57-.21c.3-.11.59-.24.88-.37l.55-.26q.44-.23.84-.48c.17-.1.34-.19.5-.3a10.56,10.56,0,0,0,.87-.62l.4-.29c.41-.33.8-.68,1.18-1.05l16.91-16.92A226.08,226.08,0,0,1,415.8,415.8Z"/></svg>