<svg id="_1_px" data-name="1 px" xmlns="http://www.w3.org/2000/svg" viewBox="0 0 512 511.99"><defs><style>.cls-1{fill:#037455;}.cls-2{fill:#007f65;}</style></defs><path class="cls-1" d="M373.33,512a10.57,10.57,0,0,1-6.38-2.13c-5.39-4-132.28-99.63-132.28-176.41a77.48,77.48,0,0,1,138.66-47.53A77.49,77.49,0,0,1,512,333.46c0,76.8-126.89,172.4-132.29,176.43a10.68,10.68,0,0,1-6.38,2.11ZM312.11,277.33A56.2,56.2,0,0,0,256,333.46c0,51.82,79.42,124.76,117.33,154.43,37.89-29.69,117.34-102.67,117.34-154.43A56.12,56.12,0,0,0,383.13,311c-3.38,7.78-16.2,7.78-19.57,0A56,56,0,0,0,312.11,277.33Z" transform="translate(0 -0.01)"/><path class="cls-2" d="M202.67,426.67h-96A42.72,42.72,0,0,1,64,384V234.67H21.33A21.11,21.11,0,0,1,0,213.33,21.58,21.58,0,0,1,7,197.5L216.73,2.86a10.65,10.65,0,0,1,14.5,0l67.44,62.51V32a10.67,10.67,0,0,1,10.66-10.67h64A10.67,10.67,0,0,1,384,32V144.47l57.17,53.14a10.66,10.66,0,1,1-14.52,15.62l-60.59-56.32a10.59,10.59,0,0,1-3.39-7.79V42.67H320V89.81a10.66,10.66,0,0,1-17.92,7.81L224,25.22l-202.67,188,53.34.08A10.67,10.67,0,0,1,85.33,224V384a21.35,21.35,0,0,0,21.34,21.33h96a10.67,10.67,0,0,1,0,21.34Z" transform="translate(0 -0.01)"/></svg>