<svg id="Capa_1" data-name="Capa 1" xmlns="http://www.w3.org/2000/svg" viewBox="0 0 400 512"><defs><style>.cls-1{fill:#294999;}</style></defs><path class="cls-1" d="M143.19,219,190,162.73a7.5,7.5,0,0,0-11.54-9.58l-40.07,48.21-8.76-14.23A7.5,7.5,0,0,0,116.8,195L131,218.11A7.5,7.5,0,0,0,143.19,219Z" transform="translate(-56 0)"/><path class="cls-1" d="M116.8,294,131,317.11a7.5,7.5,0,0,0,12.15.87L190,261.73a7.5,7.5,0,0,0-11.54-9.59l-40.07,48.21-8.76-14.22A7.5,7.5,0,1,0,116.8,294Z" transform="translate(-56 0)"/><path class="cls-1" d="M116.8,393.66,131,416.78a7.49,7.49,0,0,0,12.15.86L190,361.4a7.5,7.5,0,0,0-11.54-9.59L138.34,400l-8.76-14.23a7.5,7.5,0,0,0-12.78,7.87Z" transform="translate(-56 0)"/><path class="cls-1" d="M448.5,423.4a7.5,7.5,0,0,0-7.5,7.5v54.6A11.51,11.51,0,0,1,429.5,497H82.5A11.51,11.51,0,0,1,71,485.5V156.81a7.5,7.5,0,0,0-15,0V485.5A26.53,26.53,0,0,0,82.5,512h347A26.53,26.53,0,0,0,456,485.5V430.9A7.5,7.5,0,0,0,448.5,423.4Z" transform="translate(-56 0)"/><path class="cls-1" d="M429.5,57.79H392.81v-31a26.8,26.8,0,1,0-53.6,0v31H282.8v-31a26.8,26.8,0,1,0-53.6,0v31H172.79v-31a26.8,26.8,0,1,0-53.6,0v31H82.5A26.53,26.53,0,0,0,56,84.29v37.52a7.5,7.5,0,0,0,15,0V84.29a11.51,11.51,0,0,1,11.5-11.5h36.69V84.7a26.8,26.8,0,1,0,53.6,0V72.79H229.2V84.7a26.8,26.8,0,0,0,53.6,0V72.79h56.41V84.7a26.8,26.8,0,0,0,53.6,0V72.79H429.5A11.51,11.51,0,0,1,441,84.29V395.91a7.5,7.5,0,1,0,15,0V84.29a26.53,26.53,0,0,0-26.5-26.5ZM157.79,84.7a11.8,11.8,0,1,1-23.6,0V26.8a11.8,11.8,0,1,1,23.6,0Zm110,0a11.8,11.8,0,0,1-23.6,0V26.8a11.8,11.8,0,1,1,23.6,0Zm110,0a11.8,11.8,0,0,1-23.6,0V26.8a11.8,11.8,0,1,1,23.6,0Z" transform="translate(-56 0)"/><path class="cls-1" d="M221.74,225.18h158a23.5,23.5,0,0,0,0-47h-158a23.5,23.5,0,0,0,0,47Zm0-32h158a8.5,8.5,0,0,1,0,17h-158a8.5,8.5,0,0,1,0-17Z" transform="translate(-56 0)"/><path class="cls-1" d="M221.74,324.4h158a23.5,23.5,0,0,0,0-47h-158a23.5,23.5,0,0,0,0,47Zm0-32h158a8.5,8.5,0,0,1,0,17h-158a8.5,8.5,0,0,1,0-17Z" transform="translate(-56 0)"/><path class="cls-1" d="M221.74,423.61h158a23.5,23.5,0,0,0,0-47h-158a23.5,23.5,0,0,0,0,47Zm0-32h158a8.5,8.5,0,0,1,0,17h-158a8.5,8.5,0,0,1,0-17Z" transform="translate(-56 0)"/></svg>