<svg xmlns="http://www.w3.org/2000/svg" viewBox="0 0 1068.94 975.73"><defs><style>.cls-1{fill:#046023;}</style></defs><g id="Ebene_2" data-name="Ebene 2"><g id="Layer_1" data-name="Layer 1"><path class="cls-1" d="M1008.09,790.87l-41.17-42.54a14.82,14.82,0,0,0-25.48,10.31v73.77H603.17c90.22-60.15,149.66-162.8,149.66-279.36,0-139.22-84.8-258.64-205.57-309.42C544.12,159.71,599.37,81.9,684,59.81A182.62,182.62,0,0,1,831.86,84.66L788.12,96.08a15,15,0,0,0-4.91,26.69l44.22,31.52L883.15,194a15,15,0,0,0,22.25-5.81l29.2-61.89L957.77,77.2a15,15,0,0,0-17.33-20.89L896.2,67.86A236.77,236.77,0,0,0,670.4,7.74C567.45,34.62,498.08,125.23,493.54,226.23a336.54,336.54,0,0,0-76.24-8.7c-171.29,0-312.58,128.36-333,294.13H14.86A14.83,14.83,0,0,0,4.55,537.15l42.54,41.17L105.66,635a14.83,14.83,0,0,0,20.62,0l58.57-56.68,42.55-41.17a14.83,14.83,0,0,0-10.31-25.49H139.51c20-135.47,136.76-239.44,277.79-239.44,155.11,0,280.84,125.73,280.84,280.83,0,145.32-110.38,264.86-251.88,279.36H54.8a15.88,15.88,0,0,0-15.88,15.88v24.4A15.88,15.88,0,0,0,54.8,888.57H941.44v72.3a14.82,14.82,0,0,0,25.48,10.31l41.17-42.55,56.68-58.57a14.83,14.83,0,0,0,0-20.62Z"/></g></g></svg>